<!--?xml version="1.0" standalone="no"?-->
              <svg id="sw-js-blob-svg" viewBox="0 0 100 100" xmlns="http://www.w3.org/2000/svg" version="1.1">
                    <defs> 
                        <linearGradient id="sw-gradient" x1="0" x2="1" y1="1" y2="0">
                            <stop id="stop1" stop-color="rgba(126, 4, 4, 1)" offset="0%"></stop>
                            <stop id="stop2" stop-color="rgba(254.051, 57.452, 204.319, 1)" offset="100%"></stop>
                        </linearGradient>
                    </defs>
                <path fill="url(#sw-gradient)" d="M22,-35.1C27.6,-30.6,30.7,-23,34.6,-15.5C38.6,-8,43.4,-0.5,42.1,5.8C40.7,12,33.1,17.1,26.6,21.1C20.1,25,14.5,27.9,9.1,28.2C3.6,28.6,-1.8,26.5,-9.2,26.5C-16.6,26.5,-26.1,28.7,-29.3,25.3C-32.4,21.8,-29.3,12.8,-30.7,4.3C-32.2,-4.3,-38.4,-12.3,-37.2,-17.8C-35.9,-23.3,-27.3,-26.2,-19.9,-30C-12.5,-33.7,-6.2,-38.2,1,-39.7C8.2,-41.2,16.3,-39.7,22,-35.1Z" width="100%" height="100%" transform="translate(50 50)" style="transition: all 0.3s ease 0s;" stroke-width="0"></path>
              </svg>